<svg aria-hidden="true" style="position:absolute;width:0;height:0;overflow:hidden" xmlns="http://www.w3.org/2000/svg">
    <defs>
         <symbol id="icon-arrow-up" viewBox="0 0 32 32">
             <path d="M15.293 4.627c0.188-0.187 0.442-0.292 0.707-0.292s0.519 0.105 0.707 0.292l8 8c0.098 0.092 0.177 0.202 0.232 0.325s0.084 0.255 0.086 0.389c0.002 0.134-0.022 0.268-0.073 0.392s-0.125 0.238-0.22 0.333c-0.095 0.095-0.208 0.17-0.333 0.22s-0.258 0.075-0.392 0.073c-0.134-0.002-0.267-0.032-0.389-0.086s-0.233-0.133-0.325-0.232l-6.293-6.293v18.92c0 0.265-0.105 0.52-0.293 0.707s-0.442 0.293-0.707 0.293c-0.265 0-0.52-0.105-0.707-0.293s-0.293-0.442-0.293-0.707v-18.92l-6.293 6.293c-0.092 0.098-0.202 0.177-0.325 0.232s-0.255 0.084-0.389 0.086c-0.134 0.002-0.268-0.022-0.392-0.073s-0.238-0.125-0.333-0.22c-0.095-0.095-0.17-0.208-0.22-0.333s-0.075-0.258-0.073-0.392c0.002-0.134 0.032-0.267 0.086-0.389s0.133-0.233 0.232-0.325l8-8z"></path>
        </symbol>
    </defs>
</svg>