<svg aria-hidden="true" style="position:absolute;width:0;height:0;overflow:hidden" xmlns="http://www.w3.org/2000/svg">
    <defs>
        <symbol id="icon-arrow-up" viewBox="0 0 32 32">
<path d="M15.293 4.627c0.188-0.187 0.442-0.292 0.707-0.292s0.519 0.105 0.707 0.292l8 8c0.098 0.092 0.177 0.202 0.232 0.325s0.084 0.255 0.086 0.389c0.002 0.134-0.022 0.268-0.073 0.392s-0.125 0.238-0.22 0.333c-0.095 0.095-0.208 0.17-0.333 0.22s-0.258 0.075-0.392 0.073c-0.134-0.002-0.267-0.032-0.389-0.086s-0.233-0.133-0.325-0.232l-6.293-6.293v18.92c0 0.265-0.105 0.52-0.293 0.707s-0.442 0.293-0.707 0.293c-0.265 0-0.52-0.105-0.707-0.293s-0.293-0.442-0.293-0.707v-18.92l-6.293 6.293c-0.092 0.098-0.202 0.177-0.325 0.232s-0.255 0.084-0.389 0.086c-0.134 0.002-0.268-0.022-0.392-0.073s-0.238-0.125-0.333-0.22c-0.095-0.095-0.17-0.208-0.22-0.333s-0.075-0.258-0.073-0.392c0.002-0.134 0.032-0.267 0.086-0.389s0.133-0.233 0.232-0.325l8-8z"></path>
</symbol>
        <symbol id="icon-arrow_first" viewBox="0 0 206 32">
<path stroke-linejoin="miter" stroke-linecap="round" stroke-miterlimit="4" stroke-width="4" d="M3.5 24c60.927-8.037 123.852 10.434 183.853-14"></path>
<path stroke-linejoin="miter" stroke-linecap="round" stroke-miterlimit="4" stroke-width="4" d="M165.615 2.718c4.369 0.108 38.317 2.978 37.881 3.973-4.188 9.566-17.072 14.204-22.854 22.59"></path>
</symbol>
        <symbol id="icon-arrow_second" viewBox="0 0 183 32">
<path stroke-linejoin="miter" stroke-linecap="round" stroke-miterlimit="4" stroke-width="3.5556" d="M2.222 24.023c58.489 0 116.206-4.293 174.457-14.222"></path>
<path stroke-linejoin="miter" stroke-linecap="round" stroke-miterlimit="4" stroke-width="3.5556" d="M144.477 2.378c11.020 0.535 22.62 2 33.468 4.036 11.831 2.221-31.184 22.045-33.468 23.208"></path>
</symbol>
        <symbol id="icon-burger-menu" viewBox="0 0 32 32">
<path stroke-linejoin="round" stroke-linecap="round" stroke-miterlimit="4" stroke-width="1.6" d="M3.692 8.615h23.385M3.692 16.615h23.385M3.692 24.615h23.385"></path>
</symbol>
    </defs>
</svg>